# xmcd
#
# Track frame offsets:
#	150
#	22450
#	42130
#	61030
#	75555
#	98457
#	118052
#	139467
#	159420
#	182775
#	200812
#	221182
#	241005
#	256180
#
# Disc length: 3694 seconds
#
# Revision: 1
# Processed by: cddbd v1.5.1PL0 Copyright (c) Steve Scherf et al.
# Submitted via: CDex 1.50Beta5
#
DISCID=c30e6c0e
DTITLE=狩人 - ニュー・ベスト
DYEAR=1996
DGENRE=Pop
TTITLE0=あずさ2号
TTITLE1=コスモス街道
TTITLE2=白馬山麓
TTITLE3=アメリカ橋
TTITLE4=ハートせつなく
TTITLE5=愛する悲劇に恋してる
TTITLE6=戻らぬ夜
TTITLE7=ミ・アモーレ
TTITLE8=今の君なら誰だって愛したい
TTITLE9=ブラックサンシャイン
TTITLE10=REGRET
TTITLE11=夢よひらけ
TTITLE12=引き潮
TTITLE13=雨の中
EXTD=
EXTT0=
EXTT1=
EXTT2=
EXTT3=
EXTT4=
EXTT5=
EXTT6=
EXTT7=
EXTT8=
EXTT9=
EXTT10=
EXTT11=
EXTT12=
EXTT13=
PLAYORDER=
